<svg width="800" height="450" viewBox="0 0 800 450" fill="none" xmlns="http://www.w3.org/2000/svg">
  <rect width="800" height="450" fill="#E5E7EB" />
  <path d="M395.172 181.966C395.956 181.182 397.044 181.182 397.828 181.966L416.034 200.172C416.818 200.956 416.818 202.044 416.034 202.828C415.25 203.612 414.162 203.612 413.378 202.828L397 186.45L380.621 202.828C379.838 203.612 378.75 203.612 377.966 202.828C377.182 202.044 377.182 200.956 377.966 200.172L395.172 181.966ZM394.5 254L394.5 183H398.5L398.5 254H394.5Z" fill="#9CA3AF" />
  <path d="M325 267.5H475" stroke="#9CA3AF" stroke-width="2" />
  <path d="M342 284.5H458" stroke="#9CA3AF" stroke-width="2" />
  <path d="M358 301.5H442" stroke="#9CA3AF" stroke-width="2" />
</svg> 