<svg xmlns="http://www.w3.org/2000/svg" viewBox="0 0 24 24" fill="none">
  <path d="M11.214.006c-.052.005-.216.022-.364.033C7.442.347 4.25 2.186 2.226 5.022c-1.074 1.513-1.786 3.288-2.087 5.177-.107.68-.12.875-.12 1.831 0 .964.013 1.156.127 1.864.663 4.107 3.436 7.539 7.314 9.021.666.251 1.342.437 2.044.558.569.097 1.753.126 2.403.061 2.7-.273 5.04-1.434 6.913-3.42 1.183-1.254 2.094-2.916 2.544-4.648.221-.853.347-1.692.404-2.65.026-.471.026-1.31-.006-1.79-.157-2.2-.865-4.165-2.093-5.844-1.229-1.682-2.93-3.026-4.825-3.809-1.072-.44-2.282-.714-3.467-.781-.274-.014-1.027-.027-1.163-.017zm1.345 2.023c1.567.088 3.007.638 4.324 1.656.17.131.488.399.488.413 0 .011-2.229 3.016-2.24 3.019-.005 0-.125-.093-.266-.21-.661-.55-1.406-.878-2.194-.964-.48-.05-1.04.005-1.502.152-.98.315-1.707 1.116-1.914 2.106-.057.29-.07 1.065-.022 1.335.142.769.47 1.382 1.014 1.9.251.24.665.525.958.658.832.377 1.978.499 2.852.303.9-.206 1.669-.71 2.203-1.444l.13-.182.717.694c.395.382.723.705.73.718.027.053-.18.301-.396.475-1.14.925-2.527 1.525-3.856 1.666-.34.035-1.124.027-1.481-.014-1.01-.115-1.975-.475-2.783-1.042-1.705-1.195-2.59-3.172-2.327-5.207.31-2.418 2.235-4.292 4.673-4.541.365-.036 1.175-.03 1.546.011zm4.919 3.577v1.751h-1.392V5.605h1.392zm-3.826 6.96v6.055h-1.382v-12.11h1.382v6.055z" fill="currentColor"/>
</svg>