<svg xmlns="http://www.w3.org/2000/svg" viewBox="0 0 24 24" fill="none">
  <path d="M12 0C5.373 0 0 5.373 0 12s5.373 12 12 12 12-5.373 12-12S18.627 0 12 0zm2.218 17.657c-.23.124-.5.192-.788.192-.22 0-.402-.033-.544-.097-.143-.063-.261-.158-.358-.282-.096-.125-.167-.277-.212-.455-.045-.178-.068-.383-.068-.614V8.898l-1.694.302v7.528c0 .38.064.722.192 1.027s.31.562.543.764c.234.202.516.357.846.462.33.106.696.16 1.097.16.317 0 .622-.036.915-.106.293-.07.559-.173.797-.31l-.726-1.068zm6.22-7.313c-.167-.307-.392-.557-.674-.75-.283-.194-.613-.338-.992-.434-.379-.096-.782-.144-1.208-.144-.458 0-.888.082-1.292.248-.403.166-.773.504-1.11 1.014V8.262l-1.694.283v10.8h1.694v-4.757c0-.245.02-.487.058-.729.038-.241.106-.456.202-.644.096-.188.226-.34.39-.454.16-.115.36-.173.595-.173.46 0 .786.174.982.522.195.348.292.84.292 1.475v4.757h1.694v-5.16c0-.531-.076-.984-.23-1.359-.153-.377-.32-.672-.509-.878z" fill="currentColor"/>
</svg> 